<?xml version="1.0" encoding="utf-8" standalone="no"?>
<!DOCTYPE svg PUBLIC "-//W3C//DTD SVG 1.1//EN"
  "http://www.w3.org/Graphics/SVG/1.1/DTD/svg11.dtd">
<!-- Created with matplotlib (http://matplotlib.org/) -->
<svg height="345pt" version="1.1" viewBox="0 0 460 345" width="460pt" xmlns="http://www.w3.org/2000/svg" xmlns:xlink="http://www.w3.org/1999/xlink">
 <defs>
  <style type="text/css">
*{stroke-linecap:butt;stroke-linejoin:round;}
  </style>
 </defs>
 <g id="figure_1">
  <g id="patch_1">
   <path d="M 0 345.6 
L 460.8 345.6 
L 460.8 0 
L 0 0 
z
" style="fill:#ffffff;"/>
  </g>
  <g id="axes_1">
   <g id="patch_2">
    <path d="M 57.6 307.584 
L 162.635294 307.584 
L 162.635294 41.472 
L 57.6 41.472 
z
" style="fill:#ffffff;"/>
   </g>
   <g id="PolyCollection_1">
    <path clip-path="url(#p2a089709d3)" d="M 125.544978 295.488 
L 94.690316 295.488 
L 94.604508 293.044364 
L 94.520549 290.600727 
L 94.438446 288.157091 
L 94.358205 285.713455 
L 94.27983 283.269818 
L 94.203323 280.826182 
L 94.128688 278.382545 
L 94.055924 275.938909 
L 93.985032 273.495273 
L 93.916011 271.051636 
L 93.848858 268.608 
L 93.783571 266.164364 
L 93.720147 263.720727 
L 93.658579 261.277091 
L 93.598865 258.833455 
L 93.540996 256.389818 
L 93.484968 253.946182 
L 93.430773 251.502545 
L 93.378403 249.058909 
L 93.32785 246.615273 
L 93.279106 244.171636 
L 93.232162 241.728 
L 93.187009 239.284364 
L 93.143637 236.840727 
L 93.102037 234.397091 
L 93.062199 231.953455 
L 93.024114 229.509818 
L 92.987771 227.066182 
L 92.953161 224.622545 
L 92.920274 222.178909 
L 92.8891 219.735273 
L 92.85963 217.291636 
L 92.831854 214.848 
L 92.805764 212.404364 
L 92.781351 209.960727 
L 92.758607 207.517091 
L 92.737522 205.073455 
L 92.718091 202.629818 
L 92.700305 200.186182 
L 92.684159 197.742545 
L 92.669645 195.298909 
L 92.656758 192.855273 
L 92.645494 190.411636 
L 92.635847 187.968 
L 92.627814 185.524364 
L 92.621392 183.080727 
L 92.616577 180.637091 
L 92.613369 178.193455 
L 92.611765 175.749818 
L 92.611765 173.306182 
L 92.613369 170.862545 
L 92.616577 168.418909 
L 92.621392 165.975273 
L 92.627814 163.531636 
L 92.635847 161.088 
L 92.645494 158.644364 
L 92.656758 156.200727 
L 92.669645 153.757091 
L 92.684159 151.313455 
L 92.700305 148.869818 
L 92.718091 146.426182 
L 92.737522 143.982545 
L 92.758607 141.538909 
L 92.781351 139.095273 
L 92.805764 136.651636 
L 92.831854 134.208 
L 92.85963 131.764364 
L 92.8891 129.320727 
L 92.920274 126.877091 
L 92.953161 124.433455 
L 92.987771 121.989818 
L 93.024114 119.546182 
L 93.062199 117.102545 
L 93.102037 114.658909 
L 93.143637 112.215273 
L 93.187009 109.771636 
L 93.232162 107.328 
L 93.279106 104.884364 
L 93.32785 102.440727 
L 93.378403 99.997091 
L 93.430773 97.553455 
L 93.484968 95.109818 
L 93.540996 92.666182 
L 93.598865 90.222545 
L 93.658579 87.778909 
L 93.720147 85.335273 
L 93.783571 82.891636 
L 93.848858 80.448 
L 93.916011 78.004364 
L 93.985032 75.560727 
L 94.055924 73.117091 
L 94.128688 70.673455 
L 94.203323 68.229818 
L 94.27983 65.786182 
L 94.358205 63.342545 
L 94.438446 60.898909 
L 94.520549 58.455273 
L 94.604508 56.011636 
L 94.690316 53.568 
L 125.544978 53.568 
L 125.544978 53.568 
L 125.630786 56.011636 
L 125.714745 58.455273 
L 125.796848 60.898909 
L 125.877089 63.342545 
L 125.955464 65.786182 
L 126.031971 68.229818 
L 126.106606 70.673455 
L 126.17937 73.117091 
L 126.250262 75.560727 
L 126.319283 78.004364 
L 126.386436 80.448 
L 126.451723 82.891636 
L 126.515148 85.335273 
L 126.576715 87.778909 
L 126.63643 90.222545 
L 126.694298 92.666182 
L 126.750326 95.109818 
L 126.804521 97.553455 
L 126.856891 99.997091 
L 126.907444 102.440727 
L 126.956188 104.884364 
L 127.003132 107.328 
L 127.048285 109.771636 
L 127.091657 112.215273 
L 127.133257 114.658909 
L 127.173095 117.102545 
L 127.21118 119.546182 
L 127.247523 121.989818 
L 127.282133 124.433455 
L 127.31502 126.877091 
L 127.346194 129.320727 
L 127.375664 131.764364 
L 127.40344 134.208 
L 127.42953 136.651636 
L 127.453943 139.095273 
L 127.476687 141.538909 
L 127.497772 143.982545 
L 127.517203 146.426182 
L 127.534989 148.869818 
L 127.551135 151.313455 
L 127.565649 153.757091 
L 127.578536 156.200727 
L 127.5898 158.644364 
L 127.599447 161.088 
L 127.60748 163.531636 
L 127.613902 165.975273 
L 127.618717 168.418909 
L 127.621925 170.862545 
L 127.623529 173.306182 
L 127.623529 175.749818 
L 127.621925 178.193455 
L 127.618717 180.637091 
L 127.613902 183.080727 
L 127.60748 185.524364 
L 127.599447 187.968 
L 127.5898 190.411636 
L 127.578536 192.855273 
L 127.565649 195.298909 
L 127.551135 197.742545 
L 127.534989 200.186182 
L 127.517203 202.629818 
L 127.497772 205.073455 
L 127.476687 207.517091 
L 127.453943 209.960727 
L 127.42953 212.404364 
L 127.40344 214.848 
L 127.375664 217.291636 
L 127.346194 219.735273 
L 127.31502 222.178909 
L 127.282133 224.622545 
L 127.247523 227.066182 
L 127.21118 229.509818 
L 127.173095 231.953455 
L 127.133257 234.397091 
L 127.091657 236.840727 
L 127.048285 239.284364 
L 127.003132 241.728 
L 126.956188 244.171636 
L 126.907444 246.615273 
L 126.856891 249.058909 
L 126.804521 251.502545 
L 126.750326 253.946182 
L 126.694298 256.389818 
L 126.63643 258.833455 
L 126.576715 261.277091 
L 126.515148 263.720727 
L 126.451723 266.164364 
L 126.386436 268.608 
L 126.319283 271.051636 
L 126.250262 273.495273 
L 126.17937 275.938909 
L 126.106606 278.382545 
L 126.031971 280.826182 
L 125.955464 283.269818 
L 125.877089 285.713455 
L 125.796848 288.157091 
L 125.714745 290.600727 
L 125.630786 293.044364 
L 125.544978 295.488 
z
" style="fill:#1f77b4;fill-opacity:0.3;"/>
   </g>
   <g id="matplotlib.axis_1">
    <g id="xtick_1">
     <g id="line2d_1">
      <defs>
       <path d="M 0 0 
L 0 3.5 
" id="m28901c2ddc" style="stroke:#000000;stroke-width:0.8;"/>
      </defs>
      <g>
       <use style="stroke:#000000;stroke-width:0.8;" x="110.117647" xlink:href="#m28901c2ddc" y="307.584"/>
      </g>
     </g>
     <g id="text_1">
      <!-- C -->
      <defs>
       <path d="M 64.40625 67.28125 
L 64.40625 56.890625 
Q 59.421875 61.53125 53.78125 63.8125 
Q 48.140625 66.109375 41.796875 66.109375 
Q 29.296875 66.109375 22.65625 58.46875 
Q 16.015625 50.828125 16.015625 36.375 
Q 16.015625 21.96875 22.65625 14.328125 
Q 29.296875 6.6875 41.796875 6.6875 
Q 48.140625 6.6875 53.78125 8.984375 
Q 59.421875 11.28125 64.40625 15.921875 
L 64.40625 5.609375 
Q 59.234375 2.09375 53.4375 0.328125 
Q 47.65625 -1.421875 41.21875 -1.421875 
Q 24.65625 -1.421875 15.125 8.703125 
Q 5.609375 18.84375 5.609375 36.375 
Q 5.609375 53.953125 15.125 64.078125 
Q 24.65625 74.21875 41.21875 74.21875 
Q 47.75 74.21875 53.53125 72.484375 
Q 59.328125 70.75 64.40625 67.28125 
z
" id="DejaVuSans-43"/>
      </defs>
      <g transform="translate(106.626241 322.182437)scale(0.1 -0.1)">
       <use xlink:href="#DejaVuSans-43"/>
      </g>
     </g>
    </g>
   </g>
   <g id="matplotlib.axis_2">
    <g id="ytick_1">
     <g id="line2d_2">
      <defs>
       <path d="M 0 0 
L -3.5 0 
" id="m3d1c6f7818" style="stroke:#000000;stroke-width:0.8;"/>
      </defs>
      <g>
       <use style="stroke:#000000;stroke-width:0.8;" x="57.6" xlink:href="#m3d1c6f7818" y="301.643891"/>
      </g>
     </g>
     <g id="text_2">
      <!-- 4000 -->
      <defs>
       <path d="M 37.796875 64.3125 
L 12.890625 25.390625 
L 37.796875 25.390625 
z
M 35.203125 72.90625 
L 47.609375 72.90625 
L 47.609375 25.390625 
L 58.015625 25.390625 
L 58.015625 17.1875 
L 47.609375 17.1875 
L 47.609375 0 
L 37.796875 0 
L 37.796875 17.1875 
L 4.890625 17.1875 
L 4.890625 26.703125 
z
" id="DejaVuSans-34"/>
       <path d="M 31.78125 66.40625 
Q 24.171875 66.40625 20.328125 58.90625 
Q 16.5 51.421875 16.5 36.375 
Q 16.5 21.390625 20.328125 13.890625 
Q 24.171875 6.390625 31.78125 6.390625 
Q 39.453125 6.390625 43.28125 13.890625 
Q 47.125 21.390625 47.125 36.375 
Q 47.125 51.421875 43.28125 58.90625 
Q 39.453125 66.40625 31.78125 66.40625 
z
M 31.78125 74.21875 
Q 44.046875 74.21875 50.515625 64.515625 
Q 56.984375 54.828125 56.984375 36.375 
Q 56.984375 17.96875 50.515625 8.265625 
Q 44.046875 -1.421875 31.78125 -1.421875 
Q 19.53125 -1.421875 13.0625 8.265625 
Q 6.59375 17.96875 6.59375 36.375 
Q 6.59375 54.828125 13.0625 64.515625 
Q 19.53125 74.21875 31.78125 74.21875 
z
" id="DejaVuSans-30"/>
      </defs>
      <g transform="translate(25.15 305.44311)scale(0.1 -0.1)">
       <use xlink:href="#DejaVuSans-34"/>
       <use x="63.623047" xlink:href="#DejaVuSans-30"/>
       <use x="127.246094" xlink:href="#DejaVuSans-30"/>
       <use x="190.869141" xlink:href="#DejaVuSans-30"/>
      </g>
     </g>
    </g>
    <g id="ytick_2">
     <g id="line2d_3">
      <g>
       <use style="stroke:#000000;stroke-width:0.8;" x="57.6" xlink:href="#m3d1c6f7818" y="271.306006"/>
      </g>
     </g>
     <g id="text_3">
      <!-- 4200 -->
      <defs>
       <path d="M 19.1875 8.296875 
L 53.609375 8.296875 
L 53.609375 0 
L 7.328125 0 
L 7.328125 8.296875 
Q 12.9375 14.109375 22.625 23.890625 
Q 32.328125 33.6875 34.8125 36.53125 
Q 39.546875 41.84375 41.421875 45.53125 
Q 43.3125 49.21875 43.3125 52.78125 
Q 43.3125 58.59375 39.234375 62.25 
Q 35.15625 65.921875 28.609375 65.921875 
Q 23.96875 65.921875 18.8125 64.3125 
Q 13.671875 62.703125 7.8125 59.421875 
L 7.8125 69.390625 
Q 13.765625 71.78125 18.9375 73 
Q 24.125 74.21875 28.421875 74.21875 
Q 39.75 74.21875 46.484375 68.546875 
Q 53.21875 62.890625 53.21875 53.421875 
Q 53.21875 48.921875 51.53125 44.890625 
Q 49.859375 40.875 45.40625 35.40625 
Q 44.1875 33.984375 37.640625 27.21875 
Q 31.109375 20.453125 19.1875 8.296875 
z
" id="DejaVuSans-32"/>
      </defs>
      <g transform="translate(25.15 275.105224)scale(0.1 -0.1)">
       <use xlink:href="#DejaVuSans-34"/>
       <use x="63.623047" xlink:href="#DejaVuSans-32"/>
       <use x="127.246094" xlink:href="#DejaVuSans-30"/>
       <use x="190.869141" xlink:href="#DejaVuSans-30"/>
      </g>
     </g>
    </g>
    <g id="ytick_3">
     <g id="line2d_4">
      <g>
       <use style="stroke:#000000;stroke-width:0.8;" x="57.6" xlink:href="#m3d1c6f7818" y="240.96812"/>
      </g>
     </g>
     <g id="text_4">
      <!-- 4400 -->
      <g transform="translate(25.15 244.767338)scale(0.1 -0.1)">
       <use xlink:href="#DejaVuSans-34"/>
       <use x="63.623047" xlink:href="#DejaVuSans-34"/>
       <use x="127.246094" xlink:href="#DejaVuSans-30"/>
       <use x="190.869141" xlink:href="#DejaVuSans-30"/>
      </g>
     </g>
    </g>
    <g id="ytick_4">
     <g id="line2d_5">
      <g>
       <use style="stroke:#000000;stroke-width:0.8;" x="57.6" xlink:href="#m3d1c6f7818" y="210.630234"/>
      </g>
     </g>
     <g id="text_5">
      <!-- 4600 -->
      <defs>
       <path d="M 33.015625 40.375 
Q 26.375 40.375 22.484375 35.828125 
Q 18.609375 31.296875 18.609375 23.390625 
Q 18.609375 15.53125 22.484375 10.953125 
Q 26.375 6.390625 33.015625 6.390625 
Q 39.65625 6.390625 43.53125 10.953125 
Q 47.40625 15.53125 47.40625 23.390625 
Q 47.40625 31.296875 43.53125 35.828125 
Q 39.65625 40.375 33.015625 40.375 
z
M 52.59375 71.296875 
L 52.59375 62.3125 
Q 48.875 64.0625 45.09375 64.984375 
Q 41.3125 65.921875 37.59375 65.921875 
Q 27.828125 65.921875 22.671875 59.328125 
Q 17.53125 52.734375 16.796875 39.40625 
Q 19.671875 43.65625 24.015625 45.921875 
Q 28.375 48.1875 33.59375 48.1875 
Q 44.578125 48.1875 50.953125 41.515625 
Q 57.328125 34.859375 57.328125 23.390625 
Q 57.328125 12.15625 50.6875 5.359375 
Q 44.046875 -1.421875 33.015625 -1.421875 
Q 20.359375 -1.421875 13.671875 8.265625 
Q 6.984375 17.96875 6.984375 36.375 
Q 6.984375 53.65625 15.1875 63.9375 
Q 23.390625 74.21875 37.203125 74.21875 
Q 40.921875 74.21875 44.703125 73.484375 
Q 48.484375 72.75 52.59375 71.296875 
z
" id="DejaVuSans-36"/>
      </defs>
      <g transform="translate(25.15 214.429453)scale(0.1 -0.1)">
       <use xlink:href="#DejaVuSans-34"/>
       <use x="63.623047" xlink:href="#DejaVuSans-36"/>
       <use x="127.246094" xlink:href="#DejaVuSans-30"/>
       <use x="190.869141" xlink:href="#DejaVuSans-30"/>
      </g>
     </g>
    </g>
    <g id="ytick_5">
     <g id="line2d_6">
      <g>
       <use style="stroke:#000000;stroke-width:0.8;" x="57.6" xlink:href="#m3d1c6f7818" y="180.292348"/>
      </g>
     </g>
     <g id="text_6">
      <!-- 4800 -->
      <defs>
       <path d="M 31.78125 34.625 
Q 24.75 34.625 20.71875 30.859375 
Q 16.703125 27.09375 16.703125 20.515625 
Q 16.703125 13.921875 20.71875 10.15625 
Q 24.75 6.390625 31.78125 6.390625 
Q 38.8125 6.390625 42.859375 10.171875 
Q 46.921875 13.96875 46.921875 20.515625 
Q 46.921875 27.09375 42.890625 30.859375 
Q 38.875 34.625 31.78125 34.625 
z
M 21.921875 38.8125 
Q 15.578125 40.375 12.03125 44.71875 
Q 8.5 49.078125 8.5 55.328125 
Q 8.5 64.0625 14.71875 69.140625 
Q 20.953125 74.21875 31.78125 74.21875 
Q 42.671875 74.21875 48.875 69.140625 
Q 55.078125 64.0625 55.078125 55.328125 
Q 55.078125 49.078125 51.53125 44.71875 
Q 48 40.375 41.703125 38.8125 
Q 48.828125 37.15625 52.796875 32.3125 
Q 56.78125 27.484375 56.78125 20.515625 
Q 56.78125 9.90625 50.3125 4.234375 
Q 43.84375 -1.421875 31.78125 -1.421875 
Q 19.734375 -1.421875 13.25 4.234375 
Q 6.78125 9.90625 6.78125 20.515625 
Q 6.78125 27.484375 10.78125 32.3125 
Q 14.796875 37.15625 21.921875 38.8125 
z
M 18.3125 54.390625 
Q 18.3125 48.734375 21.84375 45.5625 
Q 25.390625 42.390625 31.78125 42.390625 
Q 38.140625 42.390625 41.71875 45.5625 
Q 45.3125 48.734375 45.3125 54.390625 
Q 45.3125 60.0625 41.71875 63.234375 
Q 38.140625 66.40625 31.78125 66.40625 
Q 25.390625 66.40625 21.84375 63.234375 
Q 18.3125 60.0625 18.3125 54.390625 
z
" id="DejaVuSans-38"/>
      </defs>
      <g transform="translate(25.15 184.091567)scale(0.1 -0.1)">
       <use xlink:href="#DejaVuSans-34"/>
       <use x="63.623047" xlink:href="#DejaVuSans-38"/>
       <use x="127.246094" xlink:href="#DejaVuSans-30"/>
       <use x="190.869141" xlink:href="#DejaVuSans-30"/>
      </g>
     </g>
    </g>
    <g id="ytick_6">
     <g id="line2d_7">
      <g>
       <use style="stroke:#000000;stroke-width:0.8;" x="57.6" xlink:href="#m3d1c6f7818" y="149.954462"/>
      </g>
     </g>
     <g id="text_7">
      <!-- 5000 -->
      <defs>
       <path d="M 10.796875 72.90625 
L 49.515625 72.90625 
L 49.515625 64.59375 
L 19.828125 64.59375 
L 19.828125 46.734375 
Q 21.96875 47.46875 24.109375 47.828125 
Q 26.265625 48.1875 28.421875 48.1875 
Q 40.625 48.1875 47.75 41.5 
Q 54.890625 34.8125 54.890625 23.390625 
Q 54.890625 11.625 47.5625 5.09375 
Q 40.234375 -1.421875 26.90625 -1.421875 
Q 22.3125 -1.421875 17.546875 -0.640625 
Q 12.796875 0.140625 7.71875 1.703125 
L 7.71875 11.625 
Q 12.109375 9.234375 16.796875 8.0625 
Q 21.484375 6.890625 26.703125 6.890625 
Q 35.15625 6.890625 40.078125 11.328125 
Q 45.015625 15.765625 45.015625 23.390625 
Q 45.015625 31 40.078125 35.4375 
Q 35.15625 39.890625 26.703125 39.890625 
Q 22.75 39.890625 18.8125 39.015625 
Q 14.890625 38.140625 10.796875 36.28125 
z
" id="DejaVuSans-35"/>
      </defs>
      <g transform="translate(25.15 153.753681)scale(0.1 -0.1)">
       <use xlink:href="#DejaVuSans-35"/>
       <use x="63.623047" xlink:href="#DejaVuSans-30"/>
       <use x="127.246094" xlink:href="#DejaVuSans-30"/>
       <use x="190.869141" xlink:href="#DejaVuSans-30"/>
      </g>
     </g>
    </g>
    <g id="ytick_7">
     <g id="line2d_8">
      <g>
       <use style="stroke:#000000;stroke-width:0.8;" x="57.6" xlink:href="#m3d1c6f7818" y="119.616576"/>
      </g>
     </g>
     <g id="text_8">
      <!-- 5200 -->
      <g transform="translate(25.15 123.415795)scale(0.1 -0.1)">
       <use xlink:href="#DejaVuSans-35"/>
       <use x="63.623047" xlink:href="#DejaVuSans-32"/>
       <use x="127.246094" xlink:href="#DejaVuSans-30"/>
       <use x="190.869141" xlink:href="#DejaVuSans-30"/>
      </g>
     </g>
    </g>
    <g id="ytick_8">
     <g id="line2d_9">
      <g>
       <use style="stroke:#000000;stroke-width:0.8;" x="57.6" xlink:href="#m3d1c6f7818" y="89.27869"/>
      </g>
     </g>
     <g id="text_9">
      <!-- 5400 -->
      <g transform="translate(25.15 93.077909)scale(0.1 -0.1)">
       <use xlink:href="#DejaVuSans-35"/>
       <use x="63.623047" xlink:href="#DejaVuSans-34"/>
       <use x="127.246094" xlink:href="#DejaVuSans-30"/>
       <use x="190.869141" xlink:href="#DejaVuSans-30"/>
      </g>
     </g>
    </g>
    <g id="ytick_9">
     <g id="line2d_10">
      <g>
       <use style="stroke:#000000;stroke-width:0.8;" x="57.6" xlink:href="#m3d1c6f7818" y="58.940805"/>
      </g>
     </g>
     <g id="text_10">
      <!-- 5600 -->
      <g transform="translate(25.15 62.740023)scale(0.1 -0.1)">
       <use xlink:href="#DejaVuSans-35"/>
       <use x="63.623047" xlink:href="#DejaVuSans-36"/>
       <use x="127.246094" xlink:href="#DejaVuSans-30"/>
       <use x="190.869141" xlink:href="#DejaVuSans-30"/>
      </g>
     </g>
    </g>
   </g>
   <g id="LineCollection_1">
    <path clip-path="url(#p2a089709d3)" d="M 101.364706 174.528 
L 118.870588 174.528 
" style="fill:none;stroke:#1f77b4;stroke-width:1.5;"/>
   </g>
   <g id="LineCollection_2">
    <path clip-path="url(#p2a089709d3)" d="M 101.364706 53.568 
L 118.870588 53.568 
" style="fill:none;stroke:#1f77b4;stroke-width:1.5;"/>
   </g>
   <g id="LineCollection_3">
    <path clip-path="url(#p2a089709d3)" d="M 101.364706 295.488 
L 118.870588 295.488 
" style="fill:none;stroke:#1f77b4;stroke-width:1.5;"/>
   </g>
   <g id="LineCollection_4">
    <path clip-path="url(#p2a089709d3)" d="M 110.117647 295.488 
L 110.117647 53.568 
" style="fill:none;stroke:#1f77b4;stroke-width:1.5;"/>
   </g>
   <g id="line2d_11">
    <defs>
     <path d="M 0 3 
C 0.795609 3 1.55874 2.683901 2.12132 2.12132 
C 2.683901 1.55874 3 0.795609 3 0 
C 3 -0.795609 2.683901 -1.55874 2.12132 -2.12132 
C 1.55874 -2.683901 0.795609 -3 0 -3 
C -0.795609 -3 -1.55874 -2.683901 -2.12132 -2.12132 
C -2.683901 -1.55874 -3 -0.795609 -3 0 
C -3 0.795609 -2.683901 1.55874 -2.12132 2.12132 
C -1.55874 2.683901 -0.795609 3 0 3 
z
" id="m7fef9b76ff" style="stroke:#ff0000;"/>
    </defs>
    <g clip-path="url(#p2a089709d3)">
     <use style="fill:#ff0000;stroke:#ff0000;" x="110.117647" xlink:href="#m7fef9b76ff" y="53.568"/>
     <use style="fill:#ff0000;stroke:#ff0000;" x="110.117647" xlink:href="#m7fef9b76ff" y="295.488"/>
    </g>
   </g>
   <g id="patch_3">
    <path d="M 57.6 307.584 
L 57.6 41.472 
" style="fill:none;stroke:#000000;stroke-linecap:square;stroke-linejoin:miter;stroke-width:0.8;"/>
   </g>
   <g id="patch_4">
    <path d="M 162.635294 307.584 
L 162.635294 41.472 
" style="fill:none;stroke:#000000;stroke-linecap:square;stroke-linejoin:miter;stroke-width:0.8;"/>
   </g>
   <g id="patch_5">
    <path d="M 57.6 307.584 
L 162.635294 307.584 
" style="fill:none;stroke:#000000;stroke-linecap:square;stroke-linejoin:miter;stroke-width:0.8;"/>
   </g>
   <g id="patch_6">
    <path d="M 57.6 41.472 
L 162.635294 41.472 
" style="fill:none;stroke:#000000;stroke-linecap:square;stroke-linejoin:miter;stroke-width:0.8;"/>
   </g>
   <g id="legend_1">
    <g id="patch_7">
     <path d="M 87.085294 64.150125 
L 155.635294 64.150125 
Q 157.635294 64.150125 157.635294 62.150125 
L 157.635294 48.472 
Q 157.635294 46.472 155.635294 46.472 
L 87.085294 46.472 
Q 85.085294 46.472 85.085294 48.472 
L 85.085294 62.150125 
Q 85.085294 64.150125 87.085294 64.150125 
z
" style="fill:#ffffff;opacity:0.8;stroke:#cccccc;stroke-linejoin:miter;"/>
    </g>
    <g id="line2d_12"/>
    <g id="line2d_13">
     <g>
      <use style="fill:#ff0000;stroke:#ff0000;" x="99.085294" xlink:href="#m7fef9b76ff" y="54.570438"/>
     </g>
    </g>
    <g id="text_11">
     <!-- Results -->
     <defs>
      <path d="M 44.390625 34.1875 
Q 47.5625 33.109375 50.5625 29.59375 
Q 53.5625 26.078125 56.59375 19.921875 
L 66.609375 0 
L 56 0 
L 46.6875 18.703125 
Q 43.0625 26.03125 39.671875 28.421875 
Q 36.28125 30.8125 30.421875 30.8125 
L 19.671875 30.8125 
L 19.671875 0 
L 9.8125 0 
L 9.8125 72.90625 
L 32.078125 72.90625 
Q 44.578125 72.90625 50.734375 67.671875 
Q 56.890625 62.453125 56.890625 51.90625 
Q 56.890625 45.015625 53.6875 40.46875 
Q 50.484375 35.9375 44.390625 34.1875 
z
M 19.671875 64.796875 
L 19.671875 38.921875 
L 32.078125 38.921875 
Q 39.203125 38.921875 42.84375 42.21875 
Q 46.484375 45.515625 46.484375 51.90625 
Q 46.484375 58.296875 42.84375 61.546875 
Q 39.203125 64.796875 32.078125 64.796875 
z
" id="DejaVuSans-52"/>
      <path d="M 56.203125 29.59375 
L 56.203125 25.203125 
L 14.890625 25.203125 
Q 15.484375 15.921875 20.484375 11.0625 
Q 25.484375 6.203125 34.421875 6.203125 
Q 39.59375 6.203125 44.453125 7.46875 
Q 49.3125 8.734375 54.109375 11.28125 
L 54.109375 2.78125 
Q 49.265625 0.734375 44.1875 -0.34375 
Q 39.109375 -1.421875 33.890625 -1.421875 
Q 20.796875 -1.421875 13.15625 6.1875 
Q 5.515625 13.8125 5.515625 26.8125 
Q 5.515625 40.234375 12.765625 48.109375 
Q 20.015625 56 32.328125 56 
Q 43.359375 56 49.78125 48.890625 
Q 56.203125 41.796875 56.203125 29.59375 
z
M 47.21875 32.234375 
Q 47.125 39.59375 43.09375 43.984375 
Q 39.0625 48.390625 32.421875 48.390625 
Q 24.90625 48.390625 20.390625 44.140625 
Q 15.875 39.890625 15.1875 32.171875 
z
" id="DejaVuSans-65"/>
      <path d="M 44.28125 53.078125 
L 44.28125 44.578125 
Q 40.484375 46.53125 36.375 47.5 
Q 32.28125 48.484375 27.875 48.484375 
Q 21.1875 48.484375 17.84375 46.4375 
Q 14.5 44.390625 14.5 40.28125 
Q 14.5 37.15625 16.890625 35.375 
Q 19.28125 33.59375 26.515625 31.984375 
L 29.59375 31.296875 
Q 39.15625 29.25 43.1875 25.515625 
Q 47.21875 21.78125 47.21875 15.09375 
Q 47.21875 7.46875 41.1875 3.015625 
Q 35.15625 -1.421875 24.609375 -1.421875 
Q 20.21875 -1.421875 15.453125 -0.5625 
Q 10.6875 0.296875 5.421875 2 
L 5.421875 11.28125 
Q 10.40625 8.6875 15.234375 7.390625 
Q 20.0625 6.109375 24.8125 6.109375 
Q 31.15625 6.109375 34.5625 8.28125 
Q 37.984375 10.453125 37.984375 14.40625 
Q 37.984375 18.0625 35.515625 20.015625 
Q 33.0625 21.96875 24.703125 23.78125 
L 21.578125 24.515625 
Q 13.234375 26.265625 9.515625 29.90625 
Q 5.8125 33.546875 5.8125 39.890625 
Q 5.8125 47.609375 11.28125 51.796875 
Q 16.75 56 26.8125 56 
Q 31.78125 56 36.171875 55.265625 
Q 40.578125 54.546875 44.28125 53.078125 
z
" id="DejaVuSans-73"/>
      <path d="M 8.5 21.578125 
L 8.5 54.6875 
L 17.484375 54.6875 
L 17.484375 21.921875 
Q 17.484375 14.15625 20.5 10.265625 
Q 23.53125 6.390625 29.59375 6.390625 
Q 36.859375 6.390625 41.078125 11.03125 
Q 45.3125 15.671875 45.3125 23.6875 
L 45.3125 54.6875 
L 54.296875 54.6875 
L 54.296875 0 
L 45.3125 0 
L 45.3125 8.40625 
Q 42.046875 3.421875 37.71875 1 
Q 33.40625 -1.421875 27.6875 -1.421875 
Q 18.265625 -1.421875 13.375 4.4375 
Q 8.5 10.296875 8.5 21.578125 
z
M 31.109375 56 
z
" id="DejaVuSans-75"/>
      <path d="M 9.421875 75.984375 
L 18.40625 75.984375 
L 18.40625 0 
L 9.421875 0 
z
" id="DejaVuSans-6c"/>
      <path d="M 18.3125 70.21875 
L 18.3125 54.6875 
L 36.8125 54.6875 
L 36.8125 47.703125 
L 18.3125 47.703125 
L 18.3125 18.015625 
Q 18.3125 11.328125 20.140625 9.421875 
Q 21.96875 7.515625 27.59375 7.515625 
L 36.8125 7.515625 
L 36.8125 0 
L 27.59375 0 
Q 17.1875 0 13.234375 3.875 
Q 9.28125 7.765625 9.28125 18.015625 
L 9.28125 47.703125 
L 2.6875 47.703125 
L 2.6875 54.6875 
L 9.28125 54.6875 
L 9.28125 70.21875 
z
" id="DejaVuSans-74"/>
     </defs>
     <g transform="translate(117.085294 58.070438)scale(0.1 -0.1)">
      <use xlink:href="#DejaVuSans-52"/>
      <use x="69.419922" xlink:href="#DejaVuSans-65"/>
      <use x="130.943359" xlink:href="#DejaVuSans-73"/>
      <use x="183.042969" xlink:href="#DejaVuSans-75"/>
      <use x="246.421875" xlink:href="#DejaVuSans-6c"/>
      <use x="274.205078" xlink:href="#DejaVuSans-74"/>
      <use x="313.414062" xlink:href="#DejaVuSans-73"/>
     </g>
    </g>
   </g>
  </g>
  <g id="axes_2">
   <g id="patch_8">
    <path d="M 183.642353 307.584 
L 288.677647 307.584 
L 288.677647 41.472 
L 183.642353 41.472 
z
" style="fill:#ffffff;"/>
   </g>
   <g id="PolyCollection_2">
    <path clip-path="url(#p12c746c756)" d="M 251.587331 295.488 
L 220.732669 295.488 
L 220.646861 293.044364 
L 220.562902 290.600727 
L 220.480799 288.157091 
L 220.400558 285.713455 
L 220.322183 283.269818 
L 220.245676 280.826182 
L 220.171041 278.382545 
L 220.098277 275.938909 
L 220.027385 273.495273 
L 219.958364 271.051636 
L 219.891211 268.608 
L 219.825924 266.164364 
L 219.762499 263.720727 
L 219.700932 261.277091 
L 219.641217 258.833455 
L 219.583349 256.389818 
L 219.527321 253.946182 
L 219.473126 251.502545 
L 219.420756 249.058909 
L 219.370203 246.615273 
L 219.321459 244.171636 
L 219.274515 241.728 
L 219.229362 239.284364 
L 219.18599 236.840727 
L 219.14439 234.397091 
L 219.104552 231.953455 
L 219.066467 229.509818 
L 219.030124 227.066182 
L 218.995514 224.622545 
L 218.962627 222.178909 
L 218.931453 219.735273 
L 218.901983 217.291636 
L 218.874207 214.848 
L 218.848117 212.404364 
L 218.823704 209.960727 
L 218.80096 207.517091 
L 218.779875 205.073455 
L 218.760444 202.629818 
L 218.742658 200.186182 
L 218.726512 197.742545 
L 218.711998 195.298909 
L 218.699111 192.855273 
L 218.687847 190.411636 
L 218.6782 187.968 
L 218.670167 185.524364 
L 218.663745 183.080727 
L 218.65893 180.637091 
L 218.655722 178.193455 
L 218.654118 175.749818 
L 218.654118 173.306182 
L 218.655722 170.862545 
L 218.65893 168.418909 
L 218.663745 165.975273 
L 218.670167 163.531636 
L 218.6782 161.088 
L 218.687847 158.644364 
L 218.699111 156.200727 
L 218.711998 153.757091 
L 218.726512 151.313455 
L 218.742658 148.869818 
L 218.760444 146.426182 
L 218.779875 143.982545 
L 218.80096 141.538909 
L 218.823704 139.095273 
L 218.848117 136.651636 
L 218.874207 134.208 
L 218.901983 131.764364 
L 218.931453 129.320727 
L 218.962627 126.877091 
L 218.995514 124.433455 
L 219.030124 121.989818 
L 219.066467 119.546182 
L 219.104552 117.102545 
L 219.14439 114.658909 
L 219.18599 112.215273 
L 219.229362 109.771636 
L 219.274515 107.328 
L 219.321459 104.884364 
L 219.370203 102.440727 
L 219.420756 99.997091 
L 219.473126 97.553455 
L 219.527321 95.109818 
L 219.583349 92.666182 
L 219.641217 90.222545 
L 219.700932 87.778909 
L 219.762499 85.335273 
L 219.825924 82.891636 
L 219.891211 80.448 
L 219.958364 78.004364 
L 220.027385 75.560727 
L 220.098277 73.117091 
L 220.171041 70.673455 
L 220.245676 68.229818 
L 220.322183 65.786182 
L 220.400558 63.342545 
L 220.480799 60.898909 
L 220.562902 58.455273 
L 220.646861 56.011636 
L 220.732669 53.568 
L 251.587331 53.568 
L 251.587331 53.568 
L 251.673139 56.011636 
L 251.757098 58.455273 
L 251.839201 60.898909 
L 251.919442 63.342545 
L 251.997817 65.786182 
L 252.074324 68.229818 
L 252.148959 70.673455 
L 252.221723 73.117091 
L 252.292615 75.560727 
L 252.361636 78.004364 
L 252.428789 80.448 
L 252.494076 82.891636 
L 252.557501 85.335273 
L 252.619068 87.778909 
L 252.678783 90.222545 
L 252.736651 92.666182 
L 252.792679 95.109818 
L 252.846874 97.553455 
L 252.899244 99.997091 
L 252.949797 102.440727 
L 252.998541 104.884364 
L 253.045485 107.328 
L 253.090638 109.771636 
L 253.13401 112.215273 
L 253.17561 114.658909 
L 253.215448 117.102545 
L 253.253533 119.546182 
L 253.289876 121.989818 
L 253.324486 124.433455 
L 253.357373 126.877091 
L 253.388547 129.320727 
L 253.418017 131.764364 
L 253.445793 134.208 
L 253.471883 136.651636 
L 253.496296 139.095273 
L 253.51904 141.538909 
L 253.540125 143.982545 
L 253.559556 146.426182 
L 253.577342 148.869818 
L 253.593488 151.313455 
L 253.608002 153.757091 
L 253.620889 156.200727 
L 253.632153 158.644364 
L 253.6418 161.088 
L 253.649833 163.531636 
L 253.656255 165.975273 
L 253.66107 168.418909 
L 253.664278 170.862545 
L 253.665882 173.306182 
L 253.665882 175.749818 
L 253.664278 178.193455 
L 253.66107 180.637091 
L 253.656255 183.080727 
L 253.649833 185.524364 
L 253.6418 187.968 
L 253.632153 190.411636 
L 253.620889 192.855273 
L 253.608002 195.298909 
L 253.593488 197.742545 
L 253.577342 200.186182 
L 253.559556 202.629818 
L 253.540125 205.073455 
L 253.51904 207.517091 
L 253.496296 209.960727 
L 253.471883 212.404364 
L 253.445793 214.848 
L 253.418017 217.291636 
L 253.388547 219.735273 
L 253.357373 222.178909 
L 253.324486 224.622545 
L 253.289876 227.066182 
L 253.253533 229.509818 
L 253.215448 231.953455 
L 253.17561 234.397091 
L 253.13401 236.840727 
L 253.090638 239.284364 
L 253.045485 241.728 
L 252.998541 244.171636 
L 252.949797 246.615273 
L 252.899244 249.058909 
L 252.846874 251.502545 
L 252.792679 253.946182 
L 252.736651 256.389818 
L 252.678783 258.833455 
L 252.619068 261.277091 
L 252.557501 263.720727 
L 252.494076 266.164364 
L 252.428789 268.608 
L 252.361636 271.051636 
L 252.292615 273.495273 
L 252.221723 275.938909 
L 252.148959 278.382545 
L 252.074324 280.826182 
L 251.997817 283.269818 
L 251.919442 285.713455 
L 251.839201 288.157091 
L 251.757098 290.600727 
L 251.673139 293.044364 
L 251.587331 295.488 
z
" style="fill:#1f77b4;fill-opacity:0.3;"/>
   </g>
   <g id="matplotlib.axis_3">
    <g id="xtick_2">
     <g id="line2d_14">
      <g>
       <use style="stroke:#000000;stroke-width:0.8;" x="236.16" xlink:href="#m28901c2ddc" y="307.584"/>
      </g>
     </g>
     <g id="text_12">
      <!-- m_flow_2 -->
      <defs>
       <path d="M 52 44.1875 
Q 55.375 50.25 60.0625 53.125 
Q 64.75 56 71.09375 56 
Q 79.640625 56 84.28125 50.015625 
Q 88.921875 44.046875 88.921875 33.015625 
L 88.921875 0 
L 79.890625 0 
L 79.890625 32.71875 
Q 79.890625 40.578125 77.09375 44.375 
Q 74.3125 48.1875 68.609375 48.1875 
Q 61.625 48.1875 57.5625 43.546875 
Q 53.515625 38.921875 53.515625 30.90625 
L 53.515625 0 
L 44.484375 0 
L 44.484375 32.71875 
Q 44.484375 40.625 41.703125 44.40625 
Q 38.921875 48.1875 33.109375 48.1875 
Q 26.21875 48.1875 22.15625 43.53125 
Q 18.109375 38.875 18.109375 30.90625 
L 18.109375 0 
L 9.078125 0 
L 9.078125 54.6875 
L 18.109375 54.6875 
L 18.109375 46.1875 
Q 21.1875 51.21875 25.484375 53.609375 
Q 29.78125 56 35.6875 56 
Q 41.65625 56 45.828125 52.96875 
Q 50 49.953125 52 44.1875 
z
" id="DejaVuSans-6d"/>
       <path d="M 50.984375 -16.609375 
L 50.984375 -23.578125 
L -0.984375 -23.578125 
L -0.984375 -16.609375 
z
" id="DejaVuSans-5f"/>
       <path d="M 37.109375 75.984375 
L 37.109375 68.5 
L 28.515625 68.5 
Q 23.6875 68.5 21.796875 66.546875 
Q 19.921875 64.59375 19.921875 59.515625 
L 19.921875 54.6875 
L 34.71875 54.6875 
L 34.71875 47.703125 
L 19.921875 47.703125 
L 19.921875 0 
L 10.890625 0 
L 10.890625 47.703125 
L 2.296875 47.703125 
L 2.296875 54.6875 
L 10.890625 54.6875 
L 10.890625 58.5 
Q 10.890625 67.625 15.140625 71.796875 
Q 19.390625 75.984375 28.609375 75.984375 
z
" id="DejaVuSans-66"/>
       <path d="M 30.609375 48.390625 
Q 23.390625 48.390625 19.1875 42.75 
Q 14.984375 37.109375 14.984375 27.296875 
Q 14.984375 17.484375 19.15625 11.84375 
Q 23.34375 6.203125 30.609375 6.203125 
Q 37.796875 6.203125 41.984375 11.859375 
Q 46.1875 17.53125 46.1875 27.296875 
Q 46.1875 37.015625 41.984375 42.703125 
Q 37.796875 48.390625 30.609375 48.390625 
z
M 30.609375 56 
Q 42.328125 56 49.015625 48.375 
Q 55.71875 40.765625 55.71875 27.296875 
Q 55.71875 13.875 49.015625 6.21875 
Q 42.328125 -1.421875 30.609375 -1.421875 
Q 18.84375 -1.421875 12.171875 6.21875 
Q 5.515625 13.875 5.515625 27.296875 
Q 5.515625 40.765625 12.171875 48.375 
Q 18.84375 56 30.609375 56 
z
" id="DejaVuSans-6f"/>
       <path d="M 4.203125 54.6875 
L 13.1875 54.6875 
L 24.421875 12.015625 
L 35.59375 54.6875 
L 46.1875 54.6875 
L 57.421875 12.015625 
L 68.609375 54.6875 
L 77.59375 54.6875 
L 63.28125 0 
L 52.6875 0 
L 40.921875 44.828125 
L 29.109375 0 
L 18.5 0 
z
" id="DejaVuSans-77"/>
      </defs>
      <g transform="translate(212.810781 322.182437)scale(0.1 -0.1)">
       <use xlink:href="#DejaVuSans-6d"/>
       <use x="97.412109" xlink:href="#DejaVuSans-5f"/>
       <use x="147.412109" xlink:href="#DejaVuSans-66"/>
       <use x="182.617188" xlink:href="#DejaVuSans-6c"/>
       <use x="210.400391" xlink:href="#DejaVuSans-6f"/>
       <use x="271.582031" xlink:href="#DejaVuSans-77"/>
       <use x="353.369141" xlink:href="#DejaVuSans-5f"/>
       <use x="403.369141" xlink:href="#DejaVuSans-32"/>
      </g>
     </g>
    </g>
   </g>
   <g id="matplotlib.axis_4">
    <g id="ytick_10">
     <g id="line2d_15">
      <g>
       <use style="stroke:#000000;stroke-width:0.8;" x="183.642353" xlink:href="#m3d1c6f7818" y="272.529089"/>
      </g>
     </g>
     <g id="text_13">
      <!-- 0.0222 -->
      <defs>
       <path d="M 10.6875 12.40625 
L 21 12.40625 
L 21 0 
L 10.6875 0 
z
" id="DejaVuSans-2e"/>
      </defs>
      <g transform="translate(141.651728 276.328308)scale(0.1 -0.1)">
       <use xlink:href="#DejaVuSans-30"/>
       <use x="63.623047" xlink:href="#DejaVuSans-2e"/>
       <use x="95.410156" xlink:href="#DejaVuSans-30"/>
       <use x="159.033203" xlink:href="#DejaVuSans-32"/>
       <use x="222.65625" xlink:href="#DejaVuSans-32"/>
       <use x="286.279297" xlink:href="#DejaVuSans-32"/>
      </g>
     </g>
    </g>
    <g id="ytick_11">
     <g id="line2d_16">
      <g>
       <use style="stroke:#000000;stroke-width:0.8;" x="183.642353" xlink:href="#m3d1c6f7818" y="234.685877"/>
      </g>
     </g>
     <g id="text_14">
      <!-- 0.0224 -->
      <g transform="translate(141.651728 238.485096)scale(0.1 -0.1)">
       <use xlink:href="#DejaVuSans-30"/>
       <use x="63.623047" xlink:href="#DejaVuSans-2e"/>
       <use x="95.410156" xlink:href="#DejaVuSans-30"/>
       <use x="159.033203" xlink:href="#DejaVuSans-32"/>
       <use x="222.65625" xlink:href="#DejaVuSans-32"/>
       <use x="286.279297" xlink:href="#DejaVuSans-34"/>
      </g>
     </g>
    </g>
    <g id="ytick_12">
     <g id="line2d_17">
      <g>
       <use style="stroke:#000000;stroke-width:0.8;" x="183.642353" xlink:href="#m3d1c6f7818" y="196.842666"/>
      </g>
     </g>
     <g id="text_15">
      <!-- 0.0226 -->
      <g transform="translate(141.651728 200.641884)scale(0.1 -0.1)">
       <use xlink:href="#DejaVuSans-30"/>
       <use x="63.623047" xlink:href="#DejaVuSans-2e"/>
       <use x="95.410156" xlink:href="#DejaVuSans-30"/>
       <use x="159.033203" xlink:href="#DejaVuSans-32"/>
       <use x="222.65625" xlink:href="#DejaVuSans-32"/>
       <use x="286.279297" xlink:href="#DejaVuSans-36"/>
      </g>
     </g>
    </g>
    <g id="ytick_13">
     <g id="line2d_18">
      <g>
       <use style="stroke:#000000;stroke-width:0.8;" x="183.642353" xlink:href="#m3d1c6f7818" y="158.999454"/>
      </g>
     </g>
     <g id="text_16">
      <!-- 0.0228 -->
      <g transform="translate(141.651728 162.798673)scale(0.1 -0.1)">
       <use xlink:href="#DejaVuSans-30"/>
       <use x="63.623047" xlink:href="#DejaVuSans-2e"/>
       <use x="95.410156" xlink:href="#DejaVuSans-30"/>
       <use x="159.033203" xlink:href="#DejaVuSans-32"/>
       <use x="222.65625" xlink:href="#DejaVuSans-32"/>
       <use x="286.279297" xlink:href="#DejaVuSans-38"/>
      </g>
     </g>
    </g>
    <g id="ytick_14">
     <g id="line2d_19">
      <g>
       <use style="stroke:#000000;stroke-width:0.8;" x="183.642353" xlink:href="#m3d1c6f7818" y="121.156242"/>
      </g>
     </g>
     <g id="text_17">
      <!-- 0.0230 -->
      <defs>
       <path d="M 40.578125 39.3125 
Q 47.65625 37.796875 51.625 33 
Q 55.609375 28.21875 55.609375 21.1875 
Q 55.609375 10.40625 48.1875 4.484375 
Q 40.765625 -1.421875 27.09375 -1.421875 
Q 22.515625 -1.421875 17.65625 -0.515625 
Q 12.796875 0.390625 7.625 2.203125 
L 7.625 11.71875 
Q 11.71875 9.328125 16.59375 8.109375 
Q 21.484375 6.890625 26.8125 6.890625 
Q 36.078125 6.890625 40.9375 10.546875 
Q 45.796875 14.203125 45.796875 21.1875 
Q 45.796875 27.640625 41.28125 31.265625 
Q 36.765625 34.90625 28.71875 34.90625 
L 20.21875 34.90625 
L 20.21875 43.015625 
L 29.109375 43.015625 
Q 36.375 43.015625 40.234375 45.921875 
Q 44.09375 48.828125 44.09375 54.296875 
Q 44.09375 59.90625 40.109375 62.90625 
Q 36.140625 65.921875 28.71875 65.921875 
Q 24.65625 65.921875 20.015625 65.03125 
Q 15.375 64.15625 9.8125 62.3125 
L 9.8125 71.09375 
Q 15.4375 72.65625 20.34375 73.4375 
Q 25.25 74.21875 29.59375 74.21875 
Q 40.828125 74.21875 47.359375 69.109375 
Q 53.90625 64.015625 53.90625 55.328125 
Q 53.90625 49.265625 50.4375 45.09375 
Q 46.96875 40.921875 40.578125 39.3125 
z
" id="DejaVuSans-33"/>
      </defs>
      <g transform="translate(141.651728 124.955461)scale(0.1 -0.1)">
       <use xlink:href="#DejaVuSans-30"/>
       <use x="63.623047" xlink:href="#DejaVuSans-2e"/>
       <use x="95.410156" xlink:href="#DejaVuSans-30"/>
       <use x="159.033203" xlink:href="#DejaVuSans-32"/>
       <use x="222.65625" xlink:href="#DejaVuSans-33"/>
       <use x="286.279297" xlink:href="#DejaVuSans-30"/>
      </g>
     </g>
    </g>
    <g id="ytick_15">
     <g id="line2d_20">
      <g>
       <use style="stroke:#000000;stroke-width:0.8;" x="183.642353" xlink:href="#m3d1c6f7818" y="83.313031"/>
      </g>
     </g>
     <g id="text_18">
      <!-- 0.0232 -->
      <g transform="translate(141.651728 87.11225)scale(0.1 -0.1)">
       <use xlink:href="#DejaVuSans-30"/>
       <use x="63.623047" xlink:href="#DejaVuSans-2e"/>
       <use x="95.410156" xlink:href="#DejaVuSans-30"/>
       <use x="159.033203" xlink:href="#DejaVuSans-32"/>
       <use x="222.65625" xlink:href="#DejaVuSans-33"/>
       <use x="286.279297" xlink:href="#DejaVuSans-32"/>
      </g>
     </g>
    </g>
    <g id="ytick_16">
     <g id="line2d_21">
      <g>
       <use style="stroke:#000000;stroke-width:0.8;" x="183.642353" xlink:href="#m3d1c6f7818" y="45.469819"/>
      </g>
     </g>
     <g id="text_19">
      <!-- 0.0234 -->
      <g transform="translate(141.651728 49.269038)scale(0.1 -0.1)">
       <use xlink:href="#DejaVuSans-30"/>
       <use x="63.623047" xlink:href="#DejaVuSans-2e"/>
       <use x="95.410156" xlink:href="#DejaVuSans-30"/>
       <use x="159.033203" xlink:href="#DejaVuSans-32"/>
       <use x="222.65625" xlink:href="#DejaVuSans-33"/>
       <use x="286.279297" xlink:href="#DejaVuSans-34"/>
      </g>
     </g>
    </g>
   </g>
   <g id="LineCollection_5">
    <path clip-path="url(#p12c746c756)" d="M 227.407059 174.528 
L 244.912941 174.528 
" style="fill:none;stroke:#1f77b4;stroke-width:1.5;"/>
   </g>
   <g id="LineCollection_6">
    <path clip-path="url(#p12c746c756)" d="M 227.407059 53.568 
L 244.912941 53.568 
" style="fill:none;stroke:#1f77b4;stroke-width:1.5;"/>
   </g>
   <g id="LineCollection_7">
    <path clip-path="url(#p12c746c756)" d="M 227.407059 295.488 
L 244.912941 295.488 
" style="fill:none;stroke:#1f77b4;stroke-width:1.5;"/>
   </g>
   <g id="LineCollection_8">
    <path clip-path="url(#p12c746c756)" d="M 236.16 295.488 
L 236.16 53.568 
" style="fill:none;stroke:#1f77b4;stroke-width:1.5;"/>
   </g>
   <g id="line2d_22">
    <g clip-path="url(#p12c746c756)">
     <use style="fill:#ff0000;stroke:#ff0000;" x="236.16" xlink:href="#m7fef9b76ff" y="295.488"/>
     <use style="fill:#ff0000;stroke:#ff0000;" x="236.16" xlink:href="#m7fef9b76ff" y="53.568"/>
    </g>
   </g>
   <g id="patch_9">
    <path d="M 183.642353 307.584 
L 183.642353 41.472 
" style="fill:none;stroke:#000000;stroke-linecap:square;stroke-linejoin:miter;stroke-width:0.8;"/>
   </g>
   <g id="patch_10">
    <path d="M 288.677647 307.584 
L 288.677647 41.472 
" style="fill:none;stroke:#000000;stroke-linecap:square;stroke-linejoin:miter;stroke-width:0.8;"/>
   </g>
   <g id="patch_11">
    <path d="M 183.642353 307.584 
L 288.677647 307.584 
" style="fill:none;stroke:#000000;stroke-linecap:square;stroke-linejoin:miter;stroke-width:0.8;"/>
   </g>
   <g id="patch_12">
    <path d="M 183.642353 41.472 
L 288.677647 41.472 
" style="fill:none;stroke:#000000;stroke-linecap:square;stroke-linejoin:miter;stroke-width:0.8;"/>
   </g>
   <g id="legend_2">
    <g id="patch_13">
     <path d="M 213.127647 64.150125 
L 281.677647 64.150125 
Q 283.677647 64.150125 283.677647 62.150125 
L 283.677647 48.472 
Q 283.677647 46.472 281.677647 46.472 
L 213.127647 46.472 
Q 211.127647 46.472 211.127647 48.472 
L 211.127647 62.150125 
Q 211.127647 64.150125 213.127647 64.150125 
z
" style="fill:#ffffff;opacity:0.8;stroke:#cccccc;stroke-linejoin:miter;"/>
    </g>
    <g id="line2d_23"/>
    <g id="line2d_24">
     <g>
      <use style="fill:#ff0000;stroke:#ff0000;" x="225.127647" xlink:href="#m7fef9b76ff" y="54.570438"/>
     </g>
    </g>
    <g id="text_20">
     <!-- Results -->
     <g transform="translate(243.127647 58.070438)scale(0.1 -0.1)">
      <use xlink:href="#DejaVuSans-52"/>
      <use x="69.419922" xlink:href="#DejaVuSans-65"/>
      <use x="130.943359" xlink:href="#DejaVuSans-73"/>
      <use x="183.042969" xlink:href="#DejaVuSans-75"/>
      <use x="246.421875" xlink:href="#DejaVuSans-6c"/>
      <use x="274.205078" xlink:href="#DejaVuSans-74"/>
      <use x="313.414062" xlink:href="#DejaVuSans-73"/>
     </g>
    </g>
   </g>
  </g>
  <g id="axes_3">
   <g id="patch_14">
    <path d="M 309.684706 307.584 
L 414.72 307.584 
L 414.72 41.472 
L 309.684706 41.472 
z
" style="fill:#ffffff;"/>
   </g>
   <g id="PolyCollection_3">
    <path clip-path="url(#pe636be6be9)" d="M 377.629684 295.488 
L 346.775022 295.488 
L 346.689214 293.044364 
L 346.605255 290.600727 
L 346.523152 288.157091 
L 346.442911 285.713455 
L 346.364536 283.269818 
L 346.288029 280.826182 
L 346.213394 278.382545 
L 346.14063 275.938909 
L 346.069738 273.495273 
L 346.000717 271.051636 
L 345.933564 268.608 
L 345.868277 266.164364 
L 345.804852 263.720727 
L 345.743285 261.277091 
L 345.68357 258.833455 
L 345.625702 256.389818 
L 345.569674 253.946182 
L 345.515479 251.502545 
L 345.463109 249.058909 
L 345.412556 246.615273 
L 345.363812 244.171636 
L 345.316868 241.728 
L 345.271715 239.284364 
L 345.228343 236.840727 
L 345.186743 234.397091 
L 345.146905 231.953455 
L 345.10882 229.509818 
L 345.072477 227.066182 
L 345.037867 224.622545 
L 345.00498 222.178909 
L 344.973806 219.735273 
L 344.944336 217.291636 
L 344.91656 214.848 
L 344.89047 212.404364 
L 344.866057 209.960727 
L 344.843313 207.517091 
L 344.822228 205.073455 
L 344.802797 202.629818 
L 344.785011 200.186182 
L 344.768865 197.742545 
L 344.754351 195.298909 
L 344.741464 192.855273 
L 344.7302 190.411636 
L 344.720553 187.968 
L 344.71252 185.524364 
L 344.706098 183.080727 
L 344.701283 180.637091 
L 344.698075 178.193455 
L 344.696471 175.749818 
L 344.696471 173.306182 
L 344.698075 170.862545 
L 344.701283 168.418909 
L 344.706098 165.975273 
L 344.71252 163.531636 
L 344.720553 161.088 
L 344.7302 158.644364 
L 344.741464 156.200727 
L 344.754351 153.757091 
L 344.768865 151.313455 
L 344.785011 148.869818 
L 344.802797 146.426182 
L 344.822228 143.982545 
L 344.843313 141.538909 
L 344.866057 139.095273 
L 344.89047 136.651636 
L 344.91656 134.208 
L 344.944336 131.764364 
L 344.973806 129.320727 
L 345.00498 126.877091 
L 345.037867 124.433455 
L 345.072477 121.989818 
L 345.10882 119.546182 
L 345.146905 117.102545 
L 345.186743 114.658909 
L 345.228343 112.215273 
L 345.271715 109.771636 
L 345.316868 107.328 
L 345.363812 104.884364 
L 345.412556 102.440727 
L 345.463109 99.997091 
L 345.515479 97.553455 
L 345.569674 95.109818 
L 345.625702 92.666182 
L 345.68357 90.222545 
L 345.743285 87.778909 
L 345.804852 85.335273 
L 345.868277 82.891636 
L 345.933564 80.448 
L 346.000717 78.004364 
L 346.069738 75.560727 
L 346.14063 73.117091 
L 346.213394 70.673455 
L 346.288029 68.229818 
L 346.364536 65.786182 
L 346.442911 63.342545 
L 346.523152 60.898909 
L 346.605255 58.455273 
L 346.689214 56.011636 
L 346.775022 53.568 
L 377.629684 53.568 
L 377.629684 53.568 
L 377.715492 56.011636 
L 377.799451 58.455273 
L 377.881554 60.898909 
L 377.961795 63.342545 
L 378.04017 65.786182 
L 378.116677 68.229818 
L 378.191312 70.673455 
L 378.264076 73.117091 
L 378.334968 75.560727 
L 378.403989 78.004364 
L 378.471142 80.448 
L 378.536429 82.891636 
L 378.599853 85.335273 
L 378.661421 87.778909 
L 378.721135 90.222545 
L 378.779004 92.666182 
L 378.835032 95.109818 
L 378.889227 97.553455 
L 378.941597 99.997091 
L 378.99215 102.440727 
L 379.040894 104.884364 
L 379.087838 107.328 
L 379.132991 109.771636 
L 379.176363 112.215273 
L 379.217963 114.658909 
L 379.257801 117.102545 
L 379.295886 119.546182 
L 379.332229 121.989818 
L 379.366839 124.433455 
L 379.399726 126.877091 
L 379.4309 129.320727 
L 379.46037 131.764364 
L 379.488146 134.208 
L 379.514236 136.651636 
L 379.538649 139.095273 
L 379.561393 141.538909 
L 379.582478 143.982545 
L 379.601909 146.426182 
L 379.619695 148.869818 
L 379.635841 151.313455 
L 379.650355 153.757091 
L 379.663242 156.200727 
L 379.674506 158.644364 
L 379.684153 161.088 
L 379.692186 163.531636 
L 379.698608 165.975273 
L 379.703423 168.418909 
L 379.706631 170.862545 
L 379.708235 173.306182 
L 379.708235 175.749818 
L 379.706631 178.193455 
L 379.703423 180.637091 
L 379.698608 183.080727 
L 379.692186 185.524364 
L 379.684153 187.968 
L 379.674506 190.411636 
L 379.663242 192.855273 
L 379.650355 195.298909 
L 379.635841 197.742545 
L 379.619695 200.186182 
L 379.601909 202.629818 
L 379.582478 205.073455 
L 379.561393 207.517091 
L 379.538649 209.960727 
L 379.514236 212.404364 
L 379.488146 214.848 
L 379.46037 217.291636 
L 379.4309 219.735273 
L 379.399726 222.178909 
L 379.366839 224.622545 
L 379.332229 227.066182 
L 379.295886 229.509818 
L 379.257801 231.953455 
L 379.217963 234.397091 
L 379.176363 236.840727 
L 379.132991 239.284364 
L 379.087838 241.728 
L 379.040894 244.171636 
L 378.99215 246.615273 
L 378.941597 249.058909 
L 378.889227 251.502545 
L 378.835032 253.946182 
L 378.779004 256.389818 
L 378.721135 258.833455 
L 378.661421 261.277091 
L 378.599853 263.720727 
L 378.536429 266.164364 
L 378.471142 268.608 
L 378.403989 271.051636 
L 378.334968 273.495273 
L 378.264076 275.938909 
L 378.191312 278.382545 
L 378.116677 280.826182 
L 378.04017 283.269818 
L 377.961795 285.713455 
L 377.881554 288.157091 
L 377.799451 290.600727 
L 377.715492 293.044364 
L 377.629684 295.488 
z
" style="fill:#1f77b4;fill-opacity:0.3;"/>
   </g>
   <g id="matplotlib.axis_5">
    <g id="xtick_3">
     <g id="line2d_25">
      <g>
       <use style="stroke:#000000;stroke-width:0.8;" x="362.202353" xlink:href="#m28901c2ddc" y="307.584"/>
      </g>
     </g>
     <g id="text_21">
      <!-- heatConv_a -->
      <defs>
       <path d="M 54.890625 33.015625 
L 54.890625 0 
L 45.90625 0 
L 45.90625 32.71875 
Q 45.90625 40.484375 42.875 44.328125 
Q 39.84375 48.1875 33.796875 48.1875 
Q 26.515625 48.1875 22.3125 43.546875 
Q 18.109375 38.921875 18.109375 30.90625 
L 18.109375 0 
L 9.078125 0 
L 9.078125 75.984375 
L 18.109375 75.984375 
L 18.109375 46.1875 
Q 21.34375 51.125 25.703125 53.5625 
Q 30.078125 56 35.796875 56 
Q 45.21875 56 50.046875 50.171875 
Q 54.890625 44.34375 54.890625 33.015625 
z
" id="DejaVuSans-68"/>
       <path d="M 34.28125 27.484375 
Q 23.390625 27.484375 19.1875 25 
Q 14.984375 22.515625 14.984375 16.5 
Q 14.984375 11.71875 18.140625 8.90625 
Q 21.296875 6.109375 26.703125 6.109375 
Q 34.1875 6.109375 38.703125 11.40625 
Q 43.21875 16.703125 43.21875 25.484375 
L 43.21875 27.484375 
z
M 52.203125 31.203125 
L 52.203125 0 
L 43.21875 0 
L 43.21875 8.296875 
Q 40.140625 3.328125 35.546875 0.953125 
Q 30.953125 -1.421875 24.3125 -1.421875 
Q 15.921875 -1.421875 10.953125 3.296875 
Q 6 8.015625 6 15.921875 
Q 6 25.140625 12.171875 29.828125 
Q 18.359375 34.515625 30.609375 34.515625 
L 43.21875 34.515625 
L 43.21875 35.40625 
Q 43.21875 41.609375 39.140625 45 
Q 35.0625 48.390625 27.6875 48.390625 
Q 23 48.390625 18.546875 47.265625 
Q 14.109375 46.140625 10.015625 43.890625 
L 10.015625 52.203125 
Q 14.9375 54.109375 19.578125 55.046875 
Q 24.21875 56 28.609375 56 
Q 40.484375 56 46.34375 49.84375 
Q 52.203125 43.703125 52.203125 31.203125 
z
" id="DejaVuSans-61"/>
       <path d="M 54.890625 33.015625 
L 54.890625 0 
L 45.90625 0 
L 45.90625 32.71875 
Q 45.90625 40.484375 42.875 44.328125 
Q 39.84375 48.1875 33.796875 48.1875 
Q 26.515625 48.1875 22.3125 43.546875 
Q 18.109375 38.921875 18.109375 30.90625 
L 18.109375 0 
L 9.078125 0 
L 9.078125 54.6875 
L 18.109375 54.6875 
L 18.109375 46.1875 
Q 21.34375 51.125 25.703125 53.5625 
Q 30.078125 56 35.796875 56 
Q 45.21875 56 50.046875 50.171875 
Q 54.890625 44.34375 54.890625 33.015625 
z
" id="DejaVuSans-6e"/>
       <path d="M 2.984375 54.6875 
L 12.5 54.6875 
L 29.59375 8.796875 
L 46.6875 54.6875 
L 56.203125 54.6875 
L 35.6875 0 
L 23.484375 0 
z
" id="DejaVuSans-76"/>
      </defs>
      <g transform="translate(332.689853 322.182437)scale(0.1 -0.1)">
       <use xlink:href="#DejaVuSans-68"/>
       <use x="63.378906" xlink:href="#DejaVuSans-65"/>
       <use x="124.902344" xlink:href="#DejaVuSans-61"/>
       <use x="186.181641" xlink:href="#DejaVuSans-74"/>
       <use x="225.390625" xlink:href="#DejaVuSans-43"/>
       <use x="295.214844" xlink:href="#DejaVuSans-6f"/>
       <use x="356.396484" xlink:href="#DejaVuSans-6e"/>
       <use x="419.775391" xlink:href="#DejaVuSans-76"/>
       <use x="478.955078" xlink:href="#DejaVuSans-5f"/>
       <use x="528.955078" xlink:href="#DejaVuSans-61"/>
      </g>
     </g>
    </g>
   </g>
   <g id="matplotlib.axis_6">
    <g id="ytick_17">
     <g id="line2d_26">
      <g>
       <use style="stroke:#000000;stroke-width:0.8;" x="309.684706" xlink:href="#m3d1c6f7818" y="302.438619"/>
      </g>
     </g>
     <g id="text_22">
      <!-- 110 -->
      <defs>
       <path d="M 12.40625 8.296875 
L 28.515625 8.296875 
L 28.515625 63.921875 
L 10.984375 60.40625 
L 10.984375 69.390625 
L 28.421875 72.90625 
L 38.28125 72.90625 
L 38.28125 8.296875 
L 54.390625 8.296875 
L 54.390625 0 
L 12.40625 0 
z
" id="DejaVuSans-31"/>
      </defs>
      <g transform="translate(283.597206 306.237838)scale(0.1 -0.1)">
       <use xlink:href="#DejaVuSans-31"/>
       <use x="63.623047" xlink:href="#DejaVuSans-31"/>
       <use x="127.246094" xlink:href="#DejaVuSans-30"/>
      </g>
     </g>
    </g>
    <g id="ytick_18">
     <g id="line2d_27">
      <g>
       <use style="stroke:#000000;stroke-width:0.8;" x="309.684706" xlink:href="#m3d1c6f7818" y="248.572632"/>
      </g>
     </g>
     <g id="text_23">
      <!-- 115 -->
      <g transform="translate(283.597206 252.371851)scale(0.1 -0.1)">
       <use xlink:href="#DejaVuSans-31"/>
       <use x="63.623047" xlink:href="#DejaVuSans-31"/>
       <use x="127.246094" xlink:href="#DejaVuSans-35"/>
      </g>
     </g>
    </g>
    <g id="ytick_19">
     <g id="line2d_28">
      <g>
       <use style="stroke:#000000;stroke-width:0.8;" x="309.684706" xlink:href="#m3d1c6f7818" y="194.706646"/>
      </g>
     </g>
     <g id="text_24">
      <!-- 120 -->
      <g transform="translate(283.597206 198.505864)scale(0.1 -0.1)">
       <use xlink:href="#DejaVuSans-31"/>
       <use x="63.623047" xlink:href="#DejaVuSans-32"/>
       <use x="127.246094" xlink:href="#DejaVuSans-30"/>
      </g>
     </g>
    </g>
    <g id="ytick_20">
     <g id="line2d_29">
      <g>
       <use style="stroke:#000000;stroke-width:0.8;" x="309.684706" xlink:href="#m3d1c6f7818" y="140.840659"/>
      </g>
     </g>
     <g id="text_25">
      <!-- 125 -->
      <g transform="translate(283.597206 144.639878)scale(0.1 -0.1)">
       <use xlink:href="#DejaVuSans-31"/>
       <use x="63.623047" xlink:href="#DejaVuSans-32"/>
       <use x="127.246094" xlink:href="#DejaVuSans-35"/>
      </g>
     </g>
    </g>
    <g id="ytick_21">
     <g id="line2d_30">
      <g>
       <use style="stroke:#000000;stroke-width:0.8;" x="309.684706" xlink:href="#m3d1c6f7818" y="86.974672"/>
      </g>
     </g>
     <g id="text_26">
      <!-- 130 -->
      <g transform="translate(283.597206 90.773891)scale(0.1 -0.1)">
       <use xlink:href="#DejaVuSans-31"/>
       <use x="63.623047" xlink:href="#DejaVuSans-33"/>
       <use x="127.246094" xlink:href="#DejaVuSans-30"/>
      </g>
     </g>
    </g>
   </g>
   <g id="LineCollection_9">
    <path clip-path="url(#pe636be6be9)" d="M 353.449412 174.528 
L 370.955294 174.528 
" style="fill:none;stroke:#1f77b4;stroke-width:1.5;"/>
   </g>
   <g id="LineCollection_10">
    <path clip-path="url(#pe636be6be9)" d="M 353.449412 53.568 
L 370.955294 53.568 
" style="fill:none;stroke:#1f77b4;stroke-width:1.5;"/>
   </g>
   <g id="LineCollection_11">
    <path clip-path="url(#pe636be6be9)" d="M 353.449412 295.488 
L 370.955294 295.488 
" style="fill:none;stroke:#1f77b4;stroke-width:1.5;"/>
   </g>
   <g id="LineCollection_12">
    <path clip-path="url(#pe636be6be9)" d="M 362.202353 295.488 
L 362.202353 53.568 
" style="fill:none;stroke:#1f77b4;stroke-width:1.5;"/>
   </g>
   <g id="line2d_31">
    <g clip-path="url(#pe636be6be9)">
     <use style="fill:#ff0000;stroke:#ff0000;" x="362.202353" xlink:href="#m7fef9b76ff" y="295.488"/>
     <use style="fill:#ff0000;stroke:#ff0000;" x="362.202353" xlink:href="#m7fef9b76ff" y="53.568"/>
    </g>
   </g>
   <g id="patch_15">
    <path d="M 309.684706 307.584 
L 309.684706 41.472 
" style="fill:none;stroke:#000000;stroke-linecap:square;stroke-linejoin:miter;stroke-width:0.8;"/>
   </g>
   <g id="patch_16">
    <path d="M 414.72 307.584 
L 414.72 41.472 
" style="fill:none;stroke:#000000;stroke-linecap:square;stroke-linejoin:miter;stroke-width:0.8;"/>
   </g>
   <g id="patch_17">
    <path d="M 309.684706 307.584 
L 414.72 307.584 
" style="fill:none;stroke:#000000;stroke-linecap:square;stroke-linejoin:miter;stroke-width:0.8;"/>
   </g>
   <g id="patch_18">
    <path d="M 309.684706 41.472 
L 414.72 41.472 
" style="fill:none;stroke:#000000;stroke-linecap:square;stroke-linejoin:miter;stroke-width:0.8;"/>
   </g>
   <g id="legend_3">
    <g id="patch_19">
     <path d="M 339.17 64.150125 
L 407.72 64.150125 
Q 409.72 64.150125 409.72 62.150125 
L 409.72 48.472 
Q 409.72 46.472 407.72 46.472 
L 339.17 46.472 
Q 337.17 46.472 337.17 48.472 
L 337.17 62.150125 
Q 337.17 64.150125 339.17 64.150125 
z
" style="fill:#ffffff;opacity:0.8;stroke:#cccccc;stroke-linejoin:miter;"/>
    </g>
    <g id="line2d_32"/>
    <g id="line2d_33">
     <g>
      <use style="fill:#ff0000;stroke:#ff0000;" x="351.17" xlink:href="#m7fef9b76ff" y="54.570438"/>
     </g>
    </g>
    <g id="text_27">
     <!-- Results -->
     <g transform="translate(369.17 58.070438)scale(0.1 -0.1)">
      <use xlink:href="#DejaVuSans-52"/>
      <use x="69.419922" xlink:href="#DejaVuSans-65"/>
      <use x="130.943359" xlink:href="#DejaVuSans-73"/>
      <use x="183.042969" xlink:href="#DejaVuSans-75"/>
      <use x="246.421875" xlink:href="#DejaVuSans-6c"/>
      <use x="274.205078" xlink:href="#DejaVuSans-74"/>
      <use x="313.414062" xlink:href="#DejaVuSans-73"/>
     </g>
    </g>
   </g>
  </g>
  <g id="text_28">
   <!-- Intersection of Tuner Parameters -->
   <defs>
    <path d="M 9.8125 72.90625 
L 19.671875 72.90625 
L 19.671875 0 
L 9.8125 0 
z
" id="DejaVuSans-49"/>
    <path d="M 41.109375 46.296875 
Q 39.59375 47.171875 37.8125 47.578125 
Q 36.03125 48 33.890625 48 
Q 26.265625 48 22.1875 43.046875 
Q 18.109375 38.09375 18.109375 28.8125 
L 18.109375 0 
L 9.078125 0 
L 9.078125 54.6875 
L 18.109375 54.6875 
L 18.109375 46.1875 
Q 20.953125 51.171875 25.484375 53.578125 
Q 30.03125 56 36.53125 56 
Q 37.453125 56 38.578125 55.875 
Q 39.703125 55.765625 41.0625 55.515625 
z
" id="DejaVuSans-72"/>
    <path d="M 48.78125 52.59375 
L 48.78125 44.1875 
Q 44.96875 46.296875 41.140625 47.34375 
Q 37.3125 48.390625 33.40625 48.390625 
Q 24.65625 48.390625 19.8125 42.84375 
Q 14.984375 37.3125 14.984375 27.296875 
Q 14.984375 17.28125 19.8125 11.734375 
Q 24.65625 6.203125 33.40625 6.203125 
Q 37.3125 6.203125 41.140625 7.25 
Q 44.96875 8.296875 48.78125 10.40625 
L 48.78125 2.09375 
Q 45.015625 0.34375 40.984375 -0.53125 
Q 36.96875 -1.421875 32.421875 -1.421875 
Q 20.0625 -1.421875 12.78125 6.34375 
Q 5.515625 14.109375 5.515625 27.296875 
Q 5.515625 40.671875 12.859375 48.328125 
Q 20.21875 56 33.015625 56 
Q 37.15625 56 41.109375 55.140625 
Q 45.0625 54.296875 48.78125 52.59375 
z
" id="DejaVuSans-63"/>
    <path d="M 9.421875 54.6875 
L 18.40625 54.6875 
L 18.40625 0 
L 9.421875 0 
z
M 9.421875 75.984375 
L 18.40625 75.984375 
L 18.40625 64.59375 
L 9.421875 64.59375 
z
" id="DejaVuSans-69"/>
    <path id="DejaVuSans-20"/>
    <path d="M -0.296875 72.90625 
L 61.375 72.90625 
L 61.375 64.59375 
L 35.5 64.59375 
L 35.5 0 
L 25.59375 0 
L 25.59375 64.59375 
L -0.296875 64.59375 
z
" id="DejaVuSans-54"/>
    <path d="M 19.671875 64.796875 
L 19.671875 37.40625 
L 32.078125 37.40625 
Q 38.96875 37.40625 42.71875 40.96875 
Q 46.484375 44.53125 46.484375 51.125 
Q 46.484375 57.671875 42.71875 61.234375 
Q 38.96875 64.796875 32.078125 64.796875 
z
M 9.8125 72.90625 
L 32.078125 72.90625 
Q 44.34375 72.90625 50.609375 67.359375 
Q 56.890625 61.8125 56.890625 51.125 
Q 56.890625 40.328125 50.609375 34.8125 
Q 44.34375 29.296875 32.078125 29.296875 
L 19.671875 29.296875 
L 19.671875 0 
L 9.8125 0 
z
" id="DejaVuSans-50"/>
   </defs>
   <g transform="translate(131.1825 16.030125)scale(0.12 -0.12)">
    <use xlink:href="#DejaVuSans-49"/>
    <use x="29.492188" xlink:href="#DejaVuSans-6e"/>
    <use x="92.871094" xlink:href="#DejaVuSans-74"/>
    <use x="132.080078" xlink:href="#DejaVuSans-65"/>
    <use x="193.603516" xlink:href="#DejaVuSans-72"/>
    <use x="234.716797" xlink:href="#DejaVuSans-73"/>
    <use x="286.816406" xlink:href="#DejaVuSans-65"/>
    <use x="348.339844" xlink:href="#DejaVuSans-63"/>
    <use x="403.320312" xlink:href="#DejaVuSans-74"/>
    <use x="442.529297" xlink:href="#DejaVuSans-69"/>
    <use x="470.3125" xlink:href="#DejaVuSans-6f"/>
    <use x="531.494141" xlink:href="#DejaVuSans-6e"/>
    <use x="594.873047" xlink:href="#DejaVuSans-20"/>
    <use x="626.660156" xlink:href="#DejaVuSans-6f"/>
    <use x="687.841797" xlink:href="#DejaVuSans-66"/>
    <use x="723.046875" xlink:href="#DejaVuSans-20"/>
    <use x="754.833984" xlink:href="#DejaVuSans-54"/>
    <use x="815.683594" xlink:href="#DejaVuSans-75"/>
    <use x="879.0625" xlink:href="#DejaVuSans-6e"/>
    <use x="942.441406" xlink:href="#DejaVuSans-65"/>
    <use x="1003.964844" xlink:href="#DejaVuSans-72"/>
    <use x="1045.078125" xlink:href="#DejaVuSans-20"/>
    <use x="1076.865234" xlink:href="#DejaVuSans-50"/>
    <use x="1137.105469" xlink:href="#DejaVuSans-61"/>
    <use x="1198.384766" xlink:href="#DejaVuSans-72"/>
    <use x="1239.498047" xlink:href="#DejaVuSans-61"/>
    <use x="1300.777344" xlink:href="#DejaVuSans-6d"/>
    <use x="1398.189453" xlink:href="#DejaVuSans-65"/>
    <use x="1459.712891" xlink:href="#DejaVuSans-74"/>
    <use x="1498.921875" xlink:href="#DejaVuSans-65"/>
    <use x="1560.445312" xlink:href="#DejaVuSans-72"/>
    <use x="1601.558594" xlink:href="#DejaVuSans-73"/>
   </g>
  </g>
 </g>
 <defs>
  <clipPath id="p2a089709d3">
   <rect height="266.112" width="105.035294" x="57.6" y="41.472"/>
  </clipPath>
  <clipPath id="p12c746c756">
   <rect height="266.112" width="105.035294" x="183.642353" y="41.472"/>
  </clipPath>
  <clipPath id="pe636be6be9">
   <rect height="266.112" width="105.035294" x="309.684706" y="41.472"/>
  </clipPath>
 </defs>
</svg>
